<svg width="100" height="100" viewBox="0 0 100 100" fill="none" xmlns="http://www.w3.org/2000/svg">
<mask id="mask0" mask-type="alpha" maskUnits="userSpaceOnUse" x="0" y="0" width="100" height="100">
<rect width="100" height="100" fill="#F9F9F9"/>
</mask>
<g mask="url(#mask0)">
<path d="M0 16C0 7.16345 7.16344 0 16 0H84C92.8366 0 100 7.16344 100 16V84C100 92.8366 92.8366 100 84 100H16C7.16345 100 0 92.8366 0 84V16Z" fill="white"/>
<path fill-rule="evenodd" clip-rule="evenodd" d="M13.9103 99.8648L14.1689 97.8816C14.7673 97.9596 15.3785 98 16 98H17.8889V100H16C15.2917 100 14.5942 99.954 13.9103 99.8648ZM82.1111 100V98H84C84.6215 98 85.2327 97.9596 85.8311 97.8816L86.0898 99.8648C85.4058 99.954 84.7083 100 84 100H82.1111ZM90.1246 98.7859L89.3585 96.9385C90.4956 96.4669 91.5579 95.8493 92.5219 95.1086L93.7405 96.6944C92.6395 97.5405 91.4254 98.2465 90.1246 98.7859ZM96.6944 93.7405L95.1086 92.5219C95.8493 91.5579 96.4669 90.4956 96.9385 89.3585L98.7859 90.1246C98.2465 91.4254 97.5405 92.6395 96.6944 93.7405ZM100 17.8889H98V16C98 15.3785 97.9596 14.7673 97.8816 14.1689L99.8648 13.9103C99.954 14.5942 100 15.2917 100 16V17.8889ZM98.7859 9.8754L96.9385 10.6415C96.4669 9.50443 95.8493 8.44211 95.1086 7.47811L96.6944 6.25946C97.5405 7.36044 98.2465 8.57464 98.7859 9.8754ZM93.7405 3.30561L92.5219 4.89145C91.5579 4.15066 90.4956 3.53307 89.3585 3.06154L90.1246 1.21409C91.4254 1.75349 92.6396 2.45954 93.7405 3.30561ZM17.8889 0H16C15.2917 0 14.5942 0.0460212 13.9103 0.135237L14.1689 2.11844C14.7673 2.04038 15.3785 2 16 2H17.8889V0ZM9.8754 1.21409L10.6415 3.06154C9.50443 3.53307 8.44211 4.15066 7.47811 4.89145L6.25946 3.30561C7.36044 2.45954 8.57464 1.75349 9.8754 1.21409ZM3.30561 6.25946L4.89145 7.47811C4.15066 8.4421 3.53307 9.50443 3.06154 10.6415L1.21409 9.8754C1.75349 8.57463 2.45954 7.36044 3.30561 6.25946ZM0 82.1111H2V84C2 84.6215 2.04038 85.2327 2.11844 85.8311L0.135237 86.0897C0.0460213 85.4058 0 84.7083 0 84V82.1111ZM1.21409 90.1246L3.06154 89.3585C3.53307 90.4956 4.15066 91.5579 4.89145 92.5219L3.30561 93.7405C2.45954 92.6396 1.75349 91.4254 1.21409 90.1246ZM9.8754 98.7859L10.6415 96.9385C9.50443 96.4669 8.4421 95.8493 7.47811 95.1086L6.25946 96.6944C7.36045 97.5405 8.57464 98.2465 9.8754 98.7859ZM0 78.3333H2V74.5556H0V78.3333ZM0 70.7778H2V67H0V70.7778ZM0 63.2222H2V59.4444H0V63.2222ZM0 55.6667H2V51.8889H0V55.6667ZM0 48.1111H2V44.3333H0V48.1111ZM0 40.5556H2V36.7778H0V40.5556ZM0 33H2V29.2222H0V33ZM0 25.4444H2V21.6667H0V25.4444ZM0 17.8889H2V16C2 15.3785 2.04038 14.7673 2.11844 14.1689L0.135237 13.9103C0.0460213 14.5942 0 15.2917 0 16V17.8889ZM21.6667 0V2H25.4444V0H21.6667ZM29.2222 0V2H33V0H29.2222ZM36.7778 0V2H40.5556V0H36.7778ZM44.3333 0V2H48.1111V0H44.3333ZM51.8889 0V2H55.6667V0H51.8889ZM59.4444 0V2H63.2222V0H59.4444ZM67 0V2H70.7778V0H67ZM74.5556 0V2H78.3333V0H74.5556ZM82.1111 0V2H84C84.6215 2 85.2327 2.04038 85.8311 2.11844L86.0898 0.135237C85.4058 0.0460213 84.7083 0 84 0H82.1111ZM100 21.6667H98V25.4444H100V21.6667ZM100 29.2222H98V33H100V29.2222ZM100 36.7778H98V40.5556H100V36.7778ZM100 44.3333H98V48.1111H100V44.3333ZM100 51.8889H98V55.6667H100V51.8889ZM100 59.4444H98V63.2222H100V59.4444ZM100 67H98V70.7778H100V67ZM100 74.5556H98V78.3333H100V74.5556ZM100 82.1111H98V84C98 84.6215 97.9596 85.2327 97.8816 85.8311L99.8648 86.0898C99.954 85.4058 100 84.7083 100 84V82.1111ZM78.3333 100V98H74.5556V100H78.3333ZM70.7778 100V98H67V100H70.7778ZM63.2222 100V98H59.4444V100H63.2222ZM55.6667 100V98H51.8889V100H55.6667ZM48.1111 100V98H44.3333V100H48.1111ZM40.5556 100V98H36.7778V100H40.5556ZM33 100V98H29.2222V100H33ZM25.4444 100V98H21.6667V100H25.4444Z" fill="url(#paint0_linear)"/>
<path d="M58.327 50.9967C58.2473 51.1162 58.2473 51.2357 58.2075 51.3951C58.1677 51.913 58.5661 52.3911 59.084 52.431C59.602 52.4708 60.0801 52.0724 60.1199 51.5544C60.1199 51.4349 60.1199 51.3154 60.1597 51.1162C60.1597 50.917 60.1597 50.7975 60.1597 50.6779C60.1597 49.5225 59.9605 48.4069 59.602 47.3312C59.1239 45.9368 58.2872 44.7017 57.2911 43.6658C56.056 42.4307 54.5421 41.5542 52.8289 41.0761C52.032 40.8769 51.1555 40.7573 50.3188 40.7573C50.0399 40.7573 49.761 40.7573 49.4423 40.7972C49.1634 40.837 48.8845 40.8768 48.6056 40.9167C48.0877 40.9964 47.7291 41.5143 47.8486 41.9924C47.9283 42.5104 48.4463 42.8689 48.9244 42.7494C49.1634 42.7096 49.3626 42.6697 49.6017 42.6697C49.6415 42.6697 49.6814 42.6697 49.7212 42.6697C49.9204 42.6697 50.1196 42.6299 50.3188 42.6299C52.5101 42.6299 54.5421 43.5064 55.9764 44.9806C57.4107 46.4149 58.2872 48.3671 58.327 50.5584V50.6381C58.327 50.7975 58.327 50.917 58.327 50.9967Z" fill="url(#paint1_linear)"/>
<path d="M63.5862 51.8731C63.5463 52.391 63.9447 52.8691 64.4627 52.909C64.9806 52.9488 65.4587 52.5504 65.4986 52.0324C65.5384 51.5942 65.5384 51.1559 65.5384 50.7177C65.5384 49.8411 65.4587 49.0045 65.3392 48.1678C64.8213 44.9804 63.2674 42.1118 61.0761 39.9205C58.5661 37.4105 55.2194 35.777 51.5141 35.4981C51.1157 35.4583 50.6774 35.4583 50.279 35.4583C49.8408 35.4583 49.4025 35.4583 48.9642 35.4981C48.526 35.5379 48.0877 35.5778 47.6495 35.6575C47.1315 35.7371 46.7729 36.2551 46.8925 36.7332C46.9721 37.2511 47.4901 37.6097 47.9682 37.4902C48.2471 37.4503 48.4861 37.4105 48.765 37.3707C48.8846 37.3707 49.0041 37.3308 49.1236 37.3308C49.522 37.291 49.9204 37.291 50.279 37.291C51.6336 37.291 52.9086 37.4902 54.1437 37.8488C56.2951 38.4862 58.2075 39.6416 59.7614 41.1955C61.0363 42.4704 62.0722 44.0242 62.7495 45.6976C63.3471 47.2116 63.7057 48.8849 63.7057 50.638C63.7057 50.7575 63.7057 50.9169 63.7057 51.0364C63.626 51.3551 63.5862 51.5942 63.5862 51.8731Z" fill="url(#paint2_linear)"/>
<path d="M64.9407 36.0958C61.1558 32.3108 55.9763 30 50.2391 30C49.6415 30 49.0439 30.0398 48.4462 30.0797C47.8486 30.1195 47.251 30.1992 46.6534 30.3187C46.1354 30.3984 45.7768 30.9164 45.8964 31.3945C45.9761 31.9124 46.494 32.271 46.9721 32.1515C47.251 32.1116 47.49 32.0718 47.7689 32.0319C48.0478 31.9921 48.3267 31.9522 48.6056 31.9522C49.1634 31.9124 49.6813 31.8726 50.2391 31.8726C55.4186 31.8726 60.1199 33.9842 63.5463 37.3707C66.9328 40.7573 69.0444 45.4586 69.0444 50.6779C69.0444 50.9568 69.0444 51.2755 69.0444 51.5544C69.0444 51.7935 69.0046 52.0325 69.0046 52.3114C68.9648 52.8293 69.3632 53.3074 69.8811 53.3473C70.3991 53.3871 70.8772 52.9887 70.917 52.4708C70.9569 51.8731 70.9967 51.2755 70.9967 50.7177C70.9967 45.0204 68.6859 39.8409 64.9407 36.0958Z" fill="url(#paint3_linear)"/>
<path d="M69.5226 60.2398L62.4706 56.4548C60.1199 55.1799 60.0402 56.0166 57.57 58.6461C56.9724 59.2836 55.8568 60.957 54.5421 60.6382C51.793 59.9609 46.6534 55.9369 44.98 54.1042C44.1832 53.2277 40.7568 49.0443 40.717 47.6896C40.6373 45.6179 45.1792 44.582 43.7051 40.6376L40.5576 33.5856C37.6093 26.8125 29.3621 37.6495 30.0394 42.7094C31.7924 55.1799 53.6655 75.3398 65.8571 68.6863C68.5664 67.1723 72.2318 61.8733 69.5226 60.2398Z" fill="url(#paint4_linear)"/>
</g>
<defs>
<linearGradient id="paint0_linear" x1="130.909" y1="2.67103e-05" x2="-47.5582" y2="3.73084" gradientUnits="userSpaceOnUse">
<stop offset="0.0890772" stop-color="#0F82FD"/>
<stop offset="1" stop-color="#F704EF"/>
</linearGradient>
<linearGradient id="paint1_linear" x1="63.9721" y1="40.7573" x2="41.9608" y2="41.2434" gradientUnits="userSpaceOnUse">
<stop offset="0.0890772" stop-color="#0F82FD"/>
<stop offset="1" stop-color="#F704EF"/>
</linearGradient>
<linearGradient id="paint2_linear" x1="71.3088" y1="35.4583" x2="37.9928" y2="36.2032" gradientUnits="userSpaceOnUse">
<stop offset="0.0890772" stop-color="#0F82FD"/>
<stop offset="1" stop-color="#F704EF"/>
</linearGradient>
<linearGradient id="paint3_linear" x1="78.7621" y1="30" x2="33.9282" y2="31.0084" gradientUnits="userSpaceOnUse">
<stop offset="0.0890772" stop-color="#0F82FD"/>
<stop offset="1" stop-color="#F704EF"/>
</linearGradient>
<linearGradient id="paint4_linear" x1="82.984" y1="31.4219" x2="10.7546" y2="33.006" gradientUnits="userSpaceOnUse">
<stop offset="0.0890772" stop-color="#0F82FD"/>
<stop offset="1" stop-color="#F704EF"/>
</linearGradient>
</defs>
</svg>
