<svg width="100" height="100" viewBox="0 0 100 100" fill="none" xmlns="http://www.w3.org/2000/svg">
<mask id="mask0" mask-type="alpha" maskUnits="userSpaceOnUse" x="0" y="0" width="100" height="100">
<rect width="100" height="100" fill="#F9F9F9"/>
</mask>
<g mask="url(#mask0)">
<path d="M0 16C0 7.16345 7.16344 0 16 0H84C92.8366 0 100 7.16344 100 16V84C100 92.8366 92.8366 100 84 100H16C7.16345 100 0 92.8366 0 84V16Z" fill="white"/>
<path fill-rule="evenodd" clip-rule="evenodd" d="M13.9103 99.8648L14.1689 97.8816C14.7673 97.9596 15.3785 98 16 98H17.8889V100H16C15.2917 100 14.5942 99.954 13.9103 99.8648ZM82.1111 100V98H84C84.6215 98 85.2327 97.9596 85.8311 97.8816L86.0898 99.8648C85.4058 99.954 84.7083 100 84 100H82.1111ZM90.1246 98.7859L89.3585 96.9385C90.4956 96.4669 91.5579 95.8493 92.5219 95.1086L93.7405 96.6944C92.6395 97.5405 91.4254 98.2465 90.1246 98.7859ZM96.6944 93.7405L95.1086 92.5219C95.8493 91.5579 96.4669 90.4956 96.9385 89.3585L98.7859 90.1246C98.2465 91.4254 97.5405 92.6395 96.6944 93.7405ZM100 17.8889H98V16C98 15.3785 97.9596 14.7673 97.8816 14.1689L99.8648 13.9103C99.954 14.5942 100 15.2917 100 16V17.8889ZM98.7859 9.8754L96.9385 10.6415C96.4669 9.50443 95.8493 8.44211 95.1086 7.47811L96.6944 6.25946C97.5405 7.36044 98.2465 8.57464 98.7859 9.8754ZM93.7405 3.30561L92.5219 4.89145C91.5579 4.15066 90.4956 3.53307 89.3585 3.06154L90.1246 1.21409C91.4254 1.75349 92.6396 2.45954 93.7405 3.30561ZM17.8889 0H16C15.2917 0 14.5942 0.0460212 13.9103 0.135237L14.1689 2.11844C14.7673 2.04038 15.3785 2 16 2H17.8889V0ZM9.8754 1.21409L10.6415 3.06154C9.50443 3.53307 8.44211 4.15066 7.47811 4.89145L6.25946 3.30561C7.36044 2.45954 8.57464 1.75349 9.8754 1.21409ZM3.30561 6.25946L4.89145 7.47811C4.15066 8.4421 3.53307 9.50443 3.06154 10.6415L1.21409 9.8754C1.75349 8.57463 2.45954 7.36044 3.30561 6.25946ZM0 82.1111H2V84C2 84.6215 2.04038 85.2327 2.11844 85.8311L0.135237 86.0897C0.0460213 85.4058 0 84.7083 0 84V82.1111ZM1.21409 90.1246L3.06154 89.3585C3.53307 90.4956 4.15066 91.5579 4.89145 92.5219L3.30561 93.7405C2.45954 92.6396 1.75349 91.4254 1.21409 90.1246ZM9.8754 98.7859L10.6415 96.9385C9.50443 96.4669 8.4421 95.8493 7.47811 95.1086L6.25946 96.6944C7.36045 97.5405 8.57464 98.2465 9.8754 98.7859ZM0 78.3333H2V74.5556H0V78.3333ZM0 70.7778H2V67H0V70.7778ZM0 63.2222H2V59.4444H0V63.2222ZM0 55.6667H2V51.8889H0V55.6667ZM0 48.1111H2V44.3333H0V48.1111ZM0 40.5556H2V36.7778H0V40.5556ZM0 33H2V29.2222H0V33ZM0 25.4444H2V21.6667H0V25.4444ZM0 17.8889H2V16C2 15.3785 2.04038 14.7673 2.11844 14.1689L0.135237 13.9103C0.0460213 14.5942 0 15.2917 0 16V17.8889ZM21.6667 0V2H25.4444V0H21.6667ZM29.2222 0V2H33V0H29.2222ZM36.7778 0V2H40.5556V0H36.7778ZM44.3333 0V2H48.1111V0H44.3333ZM51.8889 0V2H55.6667V0H51.8889ZM59.4444 0V2H63.2222V0H59.4444ZM67 0V2H70.7778V0H67ZM74.5556 0V2H78.3333V0H74.5556ZM82.1111 0V2H84C84.6215 2 85.2327 2.04038 85.8311 2.11844L86.0898 0.135237C85.4058 0.0460213 84.7083 0 84 0H82.1111ZM100 21.6667H98V25.4444H100V21.6667ZM100 29.2222H98V33H100V29.2222ZM100 36.7778H98V40.5556H100V36.7778ZM100 44.3333H98V48.1111H100V44.3333ZM100 51.8889H98V55.6667H100V51.8889ZM100 59.4444H98V63.2222H100V59.4444ZM100 67H98V70.7778H100V67ZM100 74.5556H98V78.3333H100V74.5556ZM100 82.1111H98V84C98 84.6215 97.9596 85.2327 97.8816 85.8311L99.8648 86.0898C99.954 85.4058 100 84.7083 100 84V82.1111ZM78.3333 100V98H74.5556V100H78.3333ZM70.7778 100V98H67V100H70.7778ZM63.2222 100V98H59.4444V100H63.2222ZM55.6667 100V98H51.8889V100H55.6667ZM48.1111 100V98H44.3333V100H48.1111ZM40.5556 100V98H36.7778V100H40.5556ZM33 100V98H29.2222V100H33ZM25.4444 100V98H21.6667V100H25.4444Z" fill="url(#paint0_linear)"/>
<path d="M40.3267 43.2658C40.0523 42.3368 39.7889 41.4061 39.5909 40.5145C38.2892 39.7444 37.4038 38.343 37.4038 36.7233C37.4038 34.2868 39.3851 32.3071 41.82 32.3071C44.255 32.3071 46.2363 34.2884 46.2363 36.7233C46.2363 37.0585 46.1911 37.3812 46.1209 37.6945C46.5434 38.6251 46.8847 39.6727 47.184 40.7374C48.0258 39.615 48.5434 38.2354 48.5434 36.7233C48.5434 33.0086 45.5348 30 41.82 30C38.1053 30 35.0983 33.0086 35.0983 36.7233C35.0983 39.9221 37.3352 42.5862 40.3267 43.2658Z" fill="url(#paint1_linear)"/>
<path d="M35.6829 59.1831C37.3399 57.392 39.1997 58.0935 41.6891 58.4723C43.8279 58.8012 45.9339 58.2011 45.7936 57.046C45.5722 55.1769 45.2605 54.3414 44.5512 51.9205C43.9853 49.9953 42.9113 46.5253 41.9339 43.208C40.6244 38.77 40.2456 36.7092 41.9884 36.1948C43.8669 35.6476 44.944 38.3164 45.9199 42.0171C47.0313 46.2291 47.6159 48.0888 47.9433 47.9906C48.52 47.8254 47.7312 46.0233 49.2402 45.579C51.1264 45.0303 51.4912 46.505 52.0196 46.3569C52.5481 46.1979 52.3688 44.7045 53.8731 44.2649C55.3852 43.8285 56.1444 45.6897 56.7679 45.5042C57.3852 45.3218 57.3712 44.65 58.3034 44.3834C59.2371 44.1059 62.7508 45.6788 64.7617 52.5487C67.2855 61.1863 64.4421 62.7919 65.3042 65.7163L54.0384 70C53.1264 67.8067 50.3018 67.6446 47.803 66.2463C45.2854 64.8293 43.5753 62.0686 37.0141 62.2026C34.5465 62.2525 34.6634 60.2853 35.6829 59.1831Z" fill="url(#paint2_linear)"/>
</g>
<defs>
<linearGradient id="paint0_linear" x1="130.909" y1="2.67103e-05" x2="-47.5582" y2="3.73084" gradientUnits="userSpaceOnUse">
<stop offset="0.0890772" stop-color="#0F82FD"/>
<stop offset="1" stop-color="#F704EF"/>
</linearGradient>
<linearGradient id="paint1_linear" x1="52.6991" y1="30" x2="28.7043" y2="30.5084" gradientUnits="userSpaceOnUse">
<stop offset="0.0890772" stop-color="#0F82FD"/>
<stop offset="1" stop-color="#F704EF"/>
</linearGradient>
<linearGradient id="paint2_linear" x1="75.3634" y1="36.1235" x2="20.3322" y2="37.1706" gradientUnits="userSpaceOnUse">
<stop offset="0.0890772" stop-color="#0F82FD"/>
<stop offset="1" stop-color="#F704EF"/>
</linearGradient>
</defs>
</svg>
