<svg width="100" height="100" viewBox="0 0 100 100" fill="none" xmlns="http://www.w3.org/2000/svg">
<mask id="mask0" mask-type="alpha" maskUnits="userSpaceOnUse" x="0" y="0" width="100" height="100">
<rect width="100" height="100" fill="#F9F9F9"/>
</mask>
<g mask="url(#mask0)">
<path d="M0 16C0 7.16345 7.16344 0 16 0H84C92.8366 0 100 7.16344 100 16V84C100 92.8366 92.8366 100 84 100H16C7.16345 100 0 92.8366 0 84V16Z" fill="white"/>
<path fill-rule="evenodd" clip-rule="evenodd" d="M13.9103 99.8648L14.1689 97.8816C14.7673 97.9596 15.3785 98 16 98H17.8889V100H16C15.2917 100 14.5942 99.954 13.9103 99.8648ZM82.1111 100V98H84C84.6215 98 85.2327 97.9596 85.8311 97.8816L86.0898 99.8648C85.4058 99.954 84.7083 100 84 100H82.1111ZM90.1246 98.7859L89.3585 96.9385C90.4956 96.4669 91.5579 95.8493 92.5219 95.1086L93.7405 96.6944C92.6395 97.5405 91.4254 98.2465 90.1246 98.7859ZM96.6944 93.7405L95.1086 92.5219C95.8493 91.5579 96.4669 90.4956 96.9385 89.3585L98.7859 90.1246C98.2465 91.4254 97.5405 92.6395 96.6944 93.7405ZM100 17.8889H98V16C98 15.3785 97.9596 14.7673 97.8816 14.1689L99.8648 13.9103C99.954 14.5942 100 15.2917 100 16V17.8889ZM98.7859 9.8754L96.9385 10.6415C96.4669 9.50443 95.8493 8.44211 95.1086 7.47811L96.6944 6.25946C97.5405 7.36044 98.2465 8.57464 98.7859 9.8754ZM93.7405 3.30561L92.5219 4.89145C91.5579 4.15066 90.4956 3.53307 89.3585 3.06154L90.1246 1.21409C91.4254 1.75349 92.6396 2.45954 93.7405 3.30561ZM17.8889 0H16C15.2917 0 14.5942 0.0460212 13.9103 0.135237L14.1689 2.11844C14.7673 2.04038 15.3785 2 16 2H17.8889V0ZM9.8754 1.21409L10.6415 3.06154C9.50443 3.53307 8.44211 4.15066 7.47811 4.89145L6.25946 3.30561C7.36044 2.45954 8.57464 1.75349 9.8754 1.21409ZM3.30561 6.25946L4.89145 7.47811C4.15066 8.4421 3.53307 9.50443 3.06154 10.6415L1.21409 9.8754C1.75349 8.57463 2.45954 7.36044 3.30561 6.25946ZM0 82.1111H2V84C2 84.6215 2.04038 85.2327 2.11844 85.8311L0.135237 86.0897C0.0460213 85.4058 0 84.7083 0 84V82.1111ZM1.21409 90.1246L3.06154 89.3585C3.53307 90.4956 4.15066 91.5579 4.89145 92.5219L3.30561 93.7405C2.45954 92.6396 1.75349 91.4254 1.21409 90.1246ZM9.8754 98.7859L10.6415 96.9385C9.50443 96.4669 8.4421 95.8493 7.47811 95.1086L6.25946 96.6944C7.36045 97.5405 8.57464 98.2465 9.8754 98.7859ZM0 78.3333H2V74.5556H0V78.3333ZM0 70.7778H2V67H0V70.7778ZM0 63.2222H2V59.4444H0V63.2222ZM0 55.6667H2V51.8889H0V55.6667ZM0 48.1111H2V44.3333H0V48.1111ZM0 40.5556H2V36.7778H0V40.5556ZM0 33H2V29.2222H0V33ZM0 25.4444H2V21.6667H0V25.4444ZM0 17.8889H2V16C2 15.3785 2.04038 14.7673 2.11844 14.1689L0.135237 13.9103C0.0460213 14.5942 0 15.2917 0 16V17.8889ZM21.6667 0V2H25.4444V0H21.6667ZM29.2222 0V2H33V0H29.2222ZM36.7778 0V2H40.5556V0H36.7778ZM44.3333 0V2H48.1111V0H44.3333ZM51.8889 0V2H55.6667V0H51.8889ZM59.4444 0V2H63.2222V0H59.4444ZM67 0V2H70.7778V0H67ZM74.5556 0V2H78.3333V0H74.5556ZM82.1111 0V2H84C84.6215 2 85.2327 2.04038 85.8311 2.11844L86.0898 0.135237C85.4058 0.0460213 84.7083 0 84 0H82.1111ZM100 21.6667H98V25.4444H100V21.6667ZM100 29.2222H98V33H100V29.2222ZM100 36.7778H98V40.5556H100V36.7778ZM100 44.3333H98V48.1111H100V44.3333ZM100 51.8889H98V55.6667H100V51.8889ZM100 59.4444H98V63.2222H100V59.4444ZM100 67H98V70.7778H100V67ZM100 74.5556H98V78.3333H100V74.5556ZM100 82.1111H98V84C98 84.6215 97.9596 85.2327 97.8816 85.8311L99.8648 86.0898C99.954 85.4058 100 84.7083 100 84V82.1111ZM78.3333 100V98H74.5556V100H78.3333ZM70.7778 100V98H67V100H70.7778ZM63.2222 100V98H59.4444V100H63.2222ZM55.6667 100V98H51.8889V100H55.6667ZM48.1111 100V98H44.3333V100H48.1111ZM40.5556 100V98H36.7778V100H40.5556ZM33 100V98H29.2222V100H33ZM25.4444 100V98H21.6667V100H25.4444Z" fill="url(#paint0_linear)"/>
<path d="M79.4137 52.0931V49.9955C79.4137 48.973 79.0047 47.9929 78.2778 47.2737L66.9977 36.1133C66.2809 35.404 65.3132 35.0063 64.3048 35.0063H58.6137V32.8717C58.6137 31.2857 57.328 30 55.742 30H22.8717C21.2856 30 20 31.2856 20 32.8717V52.0931H79.4137ZM61.9926 38.768C61.9926 38.5192 62.1936 38.3181 62.4426 38.3181H64.5197C64.6347 38.3181 64.7494 38.3661 64.8355 38.4426L73.6705 46.8755C73.9673 47.1532 73.7662 47.6509 73.3643 47.6509H62.4427C62.1938 47.6509 61.9927 47.45 61.9927 47.2011V38.768H61.9926ZM79.4137 53.6797V60.0371C79.4137 61.6231 78.1281 62.9086 76.5422 62.9086H73.4695C72.9143 59.0989 69.631 56.17 65.6684 56.17C61.7151 56.17 58.4319 59.0989 57.8767 62.9086H42.303C41.7479 59.0989 38.4646 56.17 34.5113 56.17C30.5581 56.17 27.2748 59.0989 26.7197 62.9086H22.8717C21.2856 62.9087 20 61.6232 20 60.0372V53.6798H79.4137V53.6797ZM65.6725 58.0881C62.3831 58.0881 59.7164 60.7547 59.7164 64.0441C59.7164 67.3335 62.3831 70 65.6725 70C68.9618 70 71.6284 67.3335 71.6284 64.0441C71.6284 60.7547 68.9619 58.0881 65.6725 58.0881ZM65.6725 67.0221C64.0278 67.0221 62.6945 65.6888 62.6945 64.0441C62.6945 62.3993 64.0276 61.0662 65.6725 61.0662C67.3171 61.0662 68.6505 62.3993 68.6505 64.0441C68.6505 65.6888 67.3171 67.0221 65.6725 67.0221ZM34.5102 58.0881C31.2207 58.0881 28.5542 60.7547 28.5542 64.0441C28.5542 67.3335 31.2208 70 34.5102 70C37.7995 70 40.4661 67.3335 40.4661 64.0441C40.4661 60.7547 37.7995 58.0881 34.5102 58.0881ZM34.5102 67.0221C32.8655 67.0221 31.5321 65.6888 31.5321 64.0441C31.5321 62.3993 32.8654 61.0662 34.5102 61.0662C36.1548 61.0662 37.4881 62.3993 37.4881 64.0441C37.4881 65.6888 36.1548 67.0221 34.5102 67.0221Z" fill="url(#paint1_linear)"/>
</g>
<defs>
<linearGradient id="paint0_linear" x1="130.909" y1="2.67103e-05" x2="-47.5582" y2="3.73084" gradientUnits="userSpaceOnUse">
<stop offset="0.0890772" stop-color="#0F82FD"/>
<stop offset="1" stop-color="#F704EF"/>
</linearGradient>
<linearGradient id="paint1_linear" x1="97.778" y1="30" x2="-8.20023" y2="33.2907" gradientUnits="userSpaceOnUse">
<stop offset="0.0890772" stop-color="#0F82FD"/>
<stop offset="1" stop-color="#F704EF"/>
</linearGradient>
</defs>
</svg>
