<svg width="100" height="100" viewBox="0 0 100 100" fill="none" xmlns="http://www.w3.org/2000/svg">
<path d="M50 0C22.4308 0 0 22.4288 0 50C0 77.5712 22.4308 100 50 100C77.5692 100 100 77.5712 100 50C100 22.4288 77.5692 0 50 0Z" fill="#27C2B1"/>
<path d="M38.25 42.5625C38.25 38.8523 41.2689 35.8333 44.9792 35.8333H57.9176C57.4515 34.2027 55.9654 33 54.1875 33H37.8958C35.7468 33 34 34.7467 34 36.8958V58.8542C34 61.0032 35.7468 62.75 37.8958 62.75H38.25V42.5625Z" fill="white"/>
<path d="M61.2709 38.6667H44.9792C42.8301 38.6667 41.0834 40.4134 41.0834 42.5625V63.1042C41.0834 65.2532 42.8301 67 44.9792 67H61.2709C63.42 67 65.1667 65.2532 65.1667 63.1042V42.5625C65.1667 40.4134 63.42 38.6667 61.2709 38.6667ZM58.4375 62.75H47.8125C47.226 62.75 46.75 62.274 46.75 61.6875C46.75 61.101 47.226 60.625 47.8125 60.625H58.4375C59.024 60.625 59.5 61.101 59.5 61.6875C59.5 62.274 59.024 62.75 58.4375 62.75ZM58.4375 57.0833H47.8125C47.226 57.0833 46.75 56.6073 46.75 56.0208C46.75 55.4343 47.226 54.9583 47.8125 54.9583H58.4375C59.024 54.9583 59.5 55.4343 59.5 56.0208C59.5 56.6073 59.024 57.0833 58.4375 57.0833ZM58.4375 52.125H47.8125C47.226 52.125 46.75 51.649 46.75 51.0625C46.75 50.476 47.226 50 47.8125 50H58.4375C59.024 50 59.5 50.476 59.5 51.0625C59.5 51.649 59.024 52.125 58.4375 52.125ZM58.4375 46.4583H47.8125C47.226 46.4583 46.75 45.9823 46.75 45.3958C46.75 44.8093 47.226 44.3333 47.8125 44.3333H58.4375C59.024 44.3333 59.5 44.8093 59.5 45.3958C59.5 45.9823 59.024 46.4583 58.4375 46.4583Z" fill="white"/>
</svg>
