<svg width="100" height="100" viewBox="0 0 100 100" fill="none" xmlns="http://www.w3.org/2000/svg">
<path d="M50 0C22.4308 0 0 22.4288 0 50C0 77.5712 22.4308 100 50 100C77.5692 100 100 77.5712 100 50C100 22.4288 77.5692 0 50 0Z" fill="#27C2B1"/>
<path d="M57.9861 35.918H56.3084C56.1477 35.5785 55.9607 35.254 55.7482 34.946L56.5866 33.4939C56.8623 33.0164 56.6987 32.4059 56.2212 32.1302L52.7631 30.1337C52.5338 30.0013 52.2612 29.9655 52.0056 30.034C51.7499 30.1026 51.5319 30.2698 51.3995 30.4991L50.5625 31.9489C50.1848 31.9168 49.8152 31.9168 49.4375 31.9489L48.6005 30.4991C48.468 30.2698 48.25 30.1026 47.9944 30.034C47.7388 29.9655 47.4662 30.0013 47.2369 30.1337L43.7788 32.1303C43.3013 32.4059 43.1377 33.0165 43.4134 33.494L44.2518 34.9462C44.0393 35.2541 43.8523 35.5787 43.6916 35.918H42.0139C41.4626 35.918 41.0156 36.365 41.0156 36.9163V40.9094C41.0156 41.4607 41.4626 41.9077 42.0139 41.9077H43.6916C43.8523 42.2469 44.0393 42.5716 44.2518 42.8794L43.4134 44.3316C43.1377 44.8091 43.3013 45.4197 43.7788 45.6953L47.2369 47.6919C47.4661 47.8243 47.7386 47.86 47.9944 47.7916C48.2501 47.723 48.4681 47.5558 48.6005 47.3265L49.4375 45.8766C49.8152 45.9088 50.1848 45.9088 50.5625 45.8766L51.3995 47.3263C51.532 47.5556 51.75 47.7229 52.0056 47.7915C52.0906 47.8142 52.1775 47.8255 52.2641 47.8255C52.4378 47.8255 52.6102 47.7801 52.7632 47.6917L56.2212 45.6952C56.6987 45.4195 56.8623 44.809 56.5866 44.3315L55.7483 42.8794C55.9608 42.5715 56.1478 42.2469 56.3084 41.9075H57.9862C58.5375 41.9075 58.9845 41.4605 58.9845 40.9092V39.9109V37.9144V36.9162C58.9844 36.3649 58.5374 35.918 57.9861 35.918ZM50 41.8424C48.3845 41.8424 47.0703 40.5283 47.0703 38.9127C47.0703 37.2972 48.3845 35.983 50 35.983C51.6155 35.983 52.9297 37.2972 52.9297 38.9127C52.9297 40.5283 51.6155 41.8424 50 41.8424Z" fill="white"/>
<path d="M36.25 42.6488V40.0845H38.6719V37.7408H35.0781C34.4309 37.7408 33.9062 38.2655 33.9062 38.9127V42.6488C32.9977 42.8624 32.1637 43.3234 31.4873 43.9998C30.5282 44.9589 30 46.2341 30 47.5905C30 48.947 30.5282 50.2223 31.4873 51.1813C31.9449 51.6389 32.687 51.6389 33.1446 51.1813C33.6023 50.7238 33.6023 49.9817 33.1446 49.5241C32.0785 48.458 32.0785 46.7231 33.1446 45.657C33.6611 45.1406 34.3477 44.8562 35.0781 44.8562C35.8085 44.8562 36.4952 45.1406 37.0116 45.657C38.0777 46.7231 38.0777 48.458 37.0116 49.5241C36.554 49.9816 36.554 50.7237 37.0116 51.1813C37.2405 51.4102 37.5404 51.5246 37.8402 51.5246C38.1401 51.5246 38.4401 51.4102 38.6688 51.1813C39.628 50.2223 40.1562 48.947 40.1562 47.5905C40.1562 46.2341 39.628 44.9588 38.6688 43.9998C37.9925 43.3234 37.1585 42.8624 36.25 42.6488Z" fill="white"/>
<path d="M68.5127 43.9998C67.8362 43.3233 67.0023 42.8624 66.0937 42.6488V38.9126C66.0937 38.2654 65.5691 37.7407 64.9219 37.7407H61.3281V40.0845H63.75V42.6488C62.8415 42.8624 62.0075 43.3233 61.3311 43.9998C60.372 44.9589 59.8438 46.2342 59.8438 47.5906C59.8438 48.947 60.372 50.2223 61.3311 51.1813C61.7887 51.6389 62.5307 51.6389 62.9884 51.1813C63.446 50.7238 63.446 49.9817 62.9884 49.5241C61.9223 48.458 61.9223 46.7231 62.9884 45.6571C63.5048 45.1406 64.1915 44.8562 64.9219 44.8562C65.6523 44.8562 66.3389 45.1406 66.8554 45.6571C67.9215 46.7231 67.9215 48.458 66.8554 49.5241C66.3977 49.9817 66.3977 50.7237 66.8554 51.1813C67.0842 51.4102 67.3841 51.5246 67.684 51.5246C67.9838 51.5246 68.2838 51.4102 68.5126 51.1813C69.4717 50.2223 69.9999 48.947 69.9999 47.5906C69.9999 46.2342 69.4718 44.9589 68.5127 43.9998Z" fill="white"/>
<path d="M33.2031 70C34.929 70 36.3281 68.6009 36.3281 66.875C36.3281 65.1491 34.929 63.75 33.2031 63.75C31.4772 63.75 30.0781 65.1491 30.0781 66.875C30.0781 68.6009 31.4772 70 33.2031 70Z" fill="white"/>
<path d="M50 70C51.7259 70 53.125 68.6009 53.125 66.875C53.125 65.1491 51.7259 63.75 50 63.75C48.2741 63.75 46.875 65.1491 46.875 66.875C46.875 68.6009 48.2741 70 50 70Z" fill="white"/>
<path d="M54.484 63.75C55.1037 64.6366 55.4687 65.7137 55.4687 66.875C55.4687 68.0363 55.1037 69.1134 54.484 70H62.3128C61.6931 69.1134 61.3281 68.0363 61.3281 66.875C61.3281 65.7137 61.6931 64.6366 62.3128 63.75H54.484Z" fill="white"/>
<path d="M37.6873 63.75C38.3069 64.6366 38.6719 65.7137 38.6719 66.875C38.6719 68.0363 38.3069 69.1134 37.6873 70H45.516C44.8963 69.1134 44.5313 68.0363 44.5313 66.875C44.5313 65.7137 44.8963 64.6366 45.516 63.75H37.6873Z" fill="white"/>
<path d="M66.7969 70C68.5228 70 69.9219 68.6009 69.9219 66.875C69.9219 65.1491 68.5228 63.75 66.7969 63.75C65.071 63.75 63.6719 65.1491 63.6719 66.875C63.6719 68.6009 65.071 70 66.7969 70Z" fill="white"/>
<path d="M52.9297 54.375H47.0703C46.4231 54.375 45.8984 54.8997 45.8984 55.5469V61.4062H54.1016V55.5469C54.1016 54.8997 53.5769 54.375 52.9297 54.375Z" fill="white"/>
<path d="M41.2109 54.375H35.3516C34.7044 54.375 34.1797 54.8997 34.1797 55.5469V61.4062H42.3828V55.5469C42.3828 54.8997 41.8581 54.375 41.2109 54.375Z" fill="white"/>
<path d="M58.7891 54.375C58.1419 54.375 57.6172 54.8997 57.6172 55.5469V61.4062H65.8203V55.5469C65.8203 54.8997 65.2956 54.375 64.6484 54.375H58.7891Z" fill="white"/>
</svg>
