<svg width="100" height="100" viewBox="0 0 100 100" fill="none" xmlns="http://www.w3.org/2000/svg">
<path d="M50 0C22.4308 0 0 22.4288 0 50C0 77.5712 22.4308 100 50 100C77.5692 100 100 77.5712 100 50C100 22.4288 77.5692 0 50 0Z" fill="#27C2B1"/>
<path d="M64.4204 30C62.161 30 60.3079 31.7789 60.1907 34.0094H68.65C68.5329 31.7789 66.6797 30 64.4204 30Z" fill="white"/>
<path d="M60.1843 36.3531H63.2484V57.5699H60.1843V36.3531Z" fill="white"/>
<path d="M65.5922 36.3531H68.6562V57.5699H65.5922V36.3531Z" fill="white"/>
<path d="M63 64.7965L64.2771 67.6562H34.5286C33.8753 67.6562 33.3438 67.1247 33.3438 66.4714V66.4527C33.3438 65.7994 33.8753 65.268 34.5286 65.268H48.3159C50.2616 65.268 51.8445 63.685 51.8445 61.7394C51.8445 59.7937 50.2616 58.2108 48.3159 58.2108H40.9664C40.3192 58.2108 39.7945 58.7355 39.7945 59.3827C39.7945 60.0299 40.3192 60.5546 40.9664 60.5546H48.3159C48.9691 60.5546 49.5006 61.0861 49.5006 61.7394C49.5006 62.3926 48.9691 62.9242 48.3159 62.9242H34.5286C32.583 62.9242 31 64.507 31 66.4527V66.4714C31 68.417 32.583 70 34.5286 70H64.4203C65.0675 70 65.5922 69.4753 65.5922 68.8281C65.5922 68.2281 65.1409 67.7342 64.5595 67.6652L65.8405 64.7965H63Z" fill="white"/>
<path d="M61.9532 62.4527H66.8875L68.0211 59.9137H60.8196L61.9532 62.4527Z" fill="white"/>
</svg>
