<svg width="100" height="100" viewBox="0 0 100 100" fill="none" xmlns="http://www.w3.org/2000/svg">
<path d="M50 0C22.4308 0 0 22.4288 0 50C0 77.5712 22.4308 100 50 100C77.5692 100 100 77.5712 100 50C100 22.4288 77.5692 0 50 0Z" fill="#27C2B1"/>
<path d="M67.66 46.193H66.328V44.321C66.328 41.3 63.852 38.863 60.832 38.863H51.857V34.373C53.037 33.69 53.83 32.414 53.83 30.95C53.83 28.768 52.059 27 49.879 27C47.696 27 45.916 28.769 45.916 30.95C45.916 32.414 46.701 33.69 47.881 34.373V38.863H38.92C35.899 38.863 33.472 41.3 33.472 44.321V46.193H32.091C30.39 46.193 29 47.6 29 49.301V55.954C29 57.654 30.39 59.049 32.091 59.049H33.472V60.936C33.472 63.957 35.899 66.378 38.92 66.378H41.484V69.262C41.484 70.963 42.877 72.342 44.578 72.342H55.174C56.875 72.342 58.254 70.963 58.254 69.262V66.379H60.832C63.853 66.379 66.328 63.957 66.328 60.936V59.05H67.66C69.361 59.05 70.738 57.656 70.738 55.955V49.302C70.738 47.601 69.363 46.193 67.66 46.193ZM37.879 48.271C37.879 46.272 39.5 44.653 41.498 44.653C43.496 44.653 45.115 46.272 45.115 48.271C45.115 50.27 43.496 51.889 41.498 51.889C39.5 51.889 37.879 50.27 37.879 48.271ZM54.804 61.473H44.948C43.315 61.473 41.991 60.157 41.991 58.522C41.991 56.889 43.315 55.573 44.948 55.573H54.805C56.438 55.573 57.762 56.889 57.762 58.522C57.762 60.155 56.437 61.473 54.804 61.473ZM58.254 51.889C56.256 51.889 54.636 50.27 54.636 48.271C54.636 46.272 56.256 44.653 58.254 44.653C60.253 44.653 61.873 46.272 61.873 48.271C61.873 50.27 60.253 51.889 58.254 51.889Z" fill="white"/>
</svg>
