<svg width="100" height="100" viewBox="0 0 100 100" fill="none" xmlns="http://www.w3.org/2000/svg">
<path d="M50 0C22.4308 0 0 22.4288 0 50C0 77.5712 22.4308 100 50 100C77.5692 100 100 77.5712 100 50C100 22.4288 77.5692 0 50 0Z" fill="#27C2B1"/>
<path d="M55.5686 30.3652C45.1983 29.0755 30.8178 30.8068 26.3482 42.0074C24.4756 46.6713 24.0692 53.2963 28.3269 57.0062C33.3265 61.3522 39.9161 60.4865 46.0993 60.7338C46.2407 63.5783 47.0887 66.5991 47.9543 69.2491C48.2546 70.1854 49.35 70.2207 49.8976 69.4964C50.9931 68.0478 51.4699 66.1749 51.9293 64.4436C52.1589 63.5603 52.7948 62.1823 52.7419 61.14C52.8656 61.14 52.9716 61.14 53.1131 61.087C61.4163 58.0307 73.288 61.0165 74.7013 49.3388C76.0617 38.2268 65.1263 31.5487 55.5686 30.3652ZM71.5567 52.9074C68.9597 58.7727 57.6885 56.9707 52.5299 58.9317C51.9823 59.1437 51.7703 59.6383 51.7881 60.0978C50.4983 60.3275 50.357 61.935 50.092 63.0128C49.8446 63.9845 49.615 65.0091 49.2793 65.9983C48.714 63.737 48.237 61.4403 47.3183 59.3557C47.1063 58.8787 46.5233 58.967 46.2407 59.3027C42.6544 58.4724 39.1741 58.4194 35.5348 57.907C24.7406 56.4232 26.3306 44.5335 31.3478 38.5092C37.0894 31.6193 48.7493 31.425 56.8231 32.7853C65.9918 34.3401 76.1678 42.4842 71.5567 52.9074Z" fill="white"/>
<path d="M40.9583 41.2122C40.6757 40.4526 39.651 40.2229 39.1917 40.9825C38.3084 42.4489 38.5557 44.7808 38.4674 46.4238C38.4144 47.3248 38.3437 48.2965 38.2907 49.2681C37.3897 49.4095 36.5064 49.4801 35.5877 49.5508C35.5877 48.8265 35.5701 48.1021 35.5701 47.3778C35.5701 46.1942 35.6231 44.9928 35.6761 43.8092C35.6937 43.2969 35.7467 42.7845 35.8351 42.2722C35.9764 41.5125 36.1531 41.7245 35.6761 41.9542C36.2767 41.6539 36.3121 40.6116 35.6761 40.3112C31.9131 38.6152 33.4854 52.2008 33.6091 53.9144C33.6974 55.1511 35.4641 55.1511 35.5171 53.9144C35.5701 53.0132 35.5701 52.1299 35.5701 51.2291C36.4534 51.2821 37.3544 51.2998 38.2554 51.2644C38.2907 52.2361 38.4144 53.1724 38.697 54.0381C38.803 54.3736 39.0857 54.7269 39.4567 54.7977C39.8277 54.8682 40.234 54.8507 40.5343 54.6211C40.7463 54.4621 40.764 54.2324 40.6757 54.0732C40.87 53.3844 40.7287 52.6952 40.6933 51.9181C40.658 50.4164 40.711 48.8971 40.7817 47.3955C40.923 45.5405 41.6297 42.9789 40.9583 41.2122Z" fill="white"/>
<path d="M47.1063 41.3889C47.0887 41.3535 47.0533 41.3182 47.0357 41.2829C46.7353 40.8765 46.3997 40.7705 45.9227 40.8235C45.3573 40.8942 44.7744 40.9119 44.1914 40.9472C43.9087 40.7882 43.5024 40.8765 43.361 41.1945C43.096 41.4242 43.043 41.8129 43.1667 42.1132C42.5307 46.0882 42.4777 50.2574 42.4424 54.2499C42.4424 54.9035 42.9547 55.2922 43.5377 55.3452C45.0394 55.5042 47.0357 55.2215 46.912 53.2782C46.8767 52.6777 46.2583 52.2536 45.693 52.5716C45.269 52.8189 44.9864 52.9956 44.6684 53.0839C44.686 52.3772 44.7037 51.6706 44.739 50.9639C44.9864 50.9993 45.2337 51.0169 45.4633 51.0523C45.958 51.1229 46.2937 50.9993 46.594 50.5929L46.6117 50.5751C46.7883 50.3454 46.7883 49.8508 46.6117 49.6213L46.594 49.6036C46.2937 49.2149 45.958 49.0736 45.4633 49.1443C45.2514 49.1796 45.0217 49.1973 44.792 49.2149C44.8627 47.0066 44.8804 44.7983 44.633 42.643C45.057 42.6607 45.4987 42.6784 45.905 42.749C46.382 42.8197 46.7353 42.696 47.018 42.2897C47.0357 42.2544 47.071 42.219 47.0887 42.1837C47.2477 41.9895 47.2477 41.6009 47.1063 41.3889Z" fill="white"/>
<path d="M52.4415 52.3421C51.9822 52.2007 51.5052 52.1301 51.0282 52.0418C50.9577 48.6323 50.7281 45.1697 50.3216 41.7952C50.2156 40.8765 48.9966 40.8765 48.8906 41.7952C48.4843 45.4875 48.7846 49.2858 48.7846 52.9781C48.7846 53.4902 49.1379 53.9319 49.6149 54.0732C50.5689 54.3382 51.4522 54.5502 52.4239 54.2677C53.4132 53.9851 53.378 52.6249 52.4415 52.3421Z" fill="white"/>
<path d="M57.4413 53.1017C57.2115 53.2079 57.0173 53.3491 56.823 53.4374C56.8407 49.5861 56.9465 45.6818 56.028 41.9189C55.8514 41.1769 54.6852 41.3359 54.703 42.0955C54.8265 46.2648 54.6324 50.3988 54.5615 54.5681C54.5615 55.0981 54.9149 55.4865 55.3918 55.6632C56.8052 56.1932 58.1302 55.893 58.7663 54.4266C59.1548 53.5434 58.3777 52.6601 57.4413 53.1017Z" fill="white"/>
<path d="M63.9955 42.5195C63.3065 41.5832 61.8755 42.1662 61.9108 43.0849C61.8755 43.0849 61.8578 43.0849 61.8046 43.0849C61.31 43.0672 61.0803 43.5089 60.8683 43.8622C60.1795 45.0458 59.8437 46.5475 59.5257 47.8548C59.0133 49.9571 58.4127 53.4727 60.674 54.7799C63.2886 56.2994 65.0199 52.8719 65.3026 50.8756C65.6738 48.4025 65.5501 44.6218 63.9955 42.5195ZM62.9531 51.4234C62.8471 51.8651 62.123 53.4374 61.5752 52.5718C60.6918 51.1584 61.593 48.2966 61.9285 46.8302C62.1052 46.0705 62.2997 45.3108 62.5115 44.5512C62.5115 44.5335 62.5115 44.5158 62.5293 44.4982C63.024 45.7348 63.1477 47.2365 63.2007 48.4731C63.2535 49.445 63.183 50.4518 62.9531 51.4234Z" fill="white"/>
</svg>
