<svg width="100" height="100" viewBox="0 0 100 100" fill="none" xmlns="http://www.w3.org/2000/svg">
<path d="M50 0C22.4308 0 0 22.4288 0 50C0 77.5712 22.4308 100 50 100C77.5692 100 100 77.5712 100 50C100 22.4288 77.5692 0 50 0Z" fill="#27C2B1"/>
<path d="M23.3888 49.694L26.3848 46.656V55.014H25.3628V49.708L23.3888 49.694Z" fill="white"/>
<path d="M32.4637 49.036C32.4731 49.0267 32.5197 48.9473 32.6037 48.798C32.6877 48.6487 32.8231 48.4573 33.0097 48.224C33.2057 47.9907 33.4437 47.762 33.7237 47.538C34.0037 47.314 34.3444 47.1227 34.7457 46.964C35.1471 46.8053 35.5997 46.726 36.1037 46.726C36.7384 46.726 37.2424 46.852 37.6157 47.104C37.9984 47.356 38.2877 47.65 38.4837 47.986C38.6891 48.3127 38.8197 48.6347 38.8757 48.952C38.9317 49.2693 38.9597 49.498 38.9597 49.638C38.9504 49.9087 38.8431 50.2027 38.6377 50.52C38.4417 50.828 38.1944 51.1407 37.8957 51.458C37.6064 51.7753 37.2891 52.0787 36.9437 52.368C36.6077 52.6573 36.2951 52.914 36.0057 53.138C35.7164 53.362 35.4737 53.544 35.2777 53.684C35.0817 53.8147 36.3137 53.88 38.9737 53.88L38.9597 55.014H32.0017C32.5244 54.65 32.9771 54.328 33.3597 54.048C33.7424 53.7587 34.1577 53.4367 34.6057 53.082C35.0537 52.718 35.4597 52.3633 35.8237 52.018C36.1971 51.6633 36.5004 51.332 36.7337 51.024C36.9671 50.716 37.0651 50.4687 37.0277 50.282C37.0091 50.2167 36.9857 50.1373 36.9577 50.044C36.9297 49.9413 36.8784 49.8433 36.8037 49.75C36.7291 49.6473 36.6217 49.5587 36.4817 49.484C36.3417 49.4093 36.1551 49.3627 35.9217 49.344C35.6884 49.3347 35.4644 49.3953 35.2497 49.526C35.0444 49.6473 34.8577 49.792 34.6897 49.96C34.5311 50.1187 34.4051 50.268 34.3117 50.408C34.2184 50.5387 33.6024 50.0813 32.4637 49.036Z" fill="white"/>
<path d="M45.7474 50.058C44.6928 48.7887 44.2075 48.1027 44.2915 48C44.3755 47.888 44.5108 47.762 44.6975 47.622C44.8934 47.4727 45.1361 47.3187 45.4254 47.16C45.7241 46.992 46.0835 46.852 46.5035 46.74C46.9515 46.6653 47.3481 46.6747 47.6935 46.768C48.0388 46.852 48.3375 46.9827 48.5895 47.16C48.8508 47.328 49.0701 47.5287 49.2474 47.762C49.4248 47.986 49.5648 48.2053 49.6674 48.42C49.7794 48.6347 49.8588 48.826 49.9055 48.994C49.9521 49.1527 49.9801 49.2553 49.9895 49.302C50.0268 49.638 49.9801 49.9413 49.8495 50.212C49.7281 50.4733 49.5834 50.6973 49.4154 50.884C49.2474 51.0707 49.0888 51.2153 48.9394 51.318C48.7994 51.4113 48.8415 51.5327 49.0655 51.682C49.2988 51.822 49.5554 52.0273 49.8354 52.298C50.1154 52.5593 50.3721 52.8813 50.6054 53.264C50.8388 53.6373 50.9601 54.0573 50.9694 54.524C50.9694 55 50.8948 55.4527 50.7455 55.882C50.6055 56.3207 50.3955 56.708 50.1154 57.044C49.8354 57.3893 49.4948 57.6647 49.0935 57.87C48.6921 58.0847 48.2395 58.206 47.7355 58.234C47.2781 58.262 46.8815 58.234 46.5455 58.15C46.2094 58.066 45.9201 57.954 45.6775 57.814C45.4348 57.674 45.2341 57.5107 45.0755 57.324C44.9168 57.1467 44.7908 56.9693 44.6975 56.792C44.6041 56.624 44.5341 56.47 44.4874 56.33C44.4501 56.19 44.4314 56.0873 44.4314 56.022C44.4035 55.658 44.4594 55.3313 44.5994 55.042C44.7488 54.762 44.9168 54.524 45.1035 54.328C45.2994 54.1227 45.5561 53.9173 45.8734 53.712C46.3494 54.3933 46.5361 54.7527 46.4335 54.79C46.3308 54.818 46.2188 54.874 46.0975 54.958C45.9855 55.0327 45.8781 55.14 45.7754 55.28C45.6821 55.42 45.6448 55.5927 45.6635 55.798C45.6728 55.9567 45.7194 56.1153 45.8034 56.274C45.8874 56.4327 46.0088 56.5773 46.1674 56.708C46.3261 56.848 46.5221 56.96 46.7554 57.044C46.9888 57.128 47.2594 57.17 47.5674 57.17C47.6141 57.17 47.6981 57.1607 47.8195 57.142C47.9501 57.1233 48.0948 57.0813 48.2535 57.016C48.4214 56.96 48.5895 56.8713 48.7575 56.75C48.9254 56.638 49.0748 56.484 49.2055 56.288C49.3454 56.092 49.4481 55.8493 49.5135 55.56C49.5788 55.2707 49.5928 54.9253 49.5555 54.524C49.5088 54.0947 49.3968 53.7353 49.2194 53.446C49.0421 53.1567 48.8321 52.928 48.5895 52.76C48.3468 52.5827 48.0855 52.452 47.8055 52.368C47.5348 52.284 47.2781 52.228 47.0354 52.2C46.7928 52.1627 46.5781 52.1487 46.3915 52.158C46.2141 52.158 46.1021 52.158 46.0555 52.158V51.122H47.0215C47.3761 51.122 47.6701 51.052 47.9035 50.912C48.1461 50.7627 48.2675 50.52 48.2675 50.184C48.2675 50.1 48.2628 50.0113 48.2535 49.918C48.2441 49.8153 48.2021 49.722 48.1275 49.638C48.0621 49.554 47.9548 49.4793 47.8055 49.414C47.6655 49.3393 47.4648 49.288 47.2034 49.26C47.0448 49.2133 46.8814 49.232 46.7134 49.316C46.5455 49.3907 46.3868 49.484 46.2374 49.596C46.0975 49.708 45.9341 49.862 45.7474 50.058Z" fill="white"/>
<path d="M62.288 46.81V53.95H63.828V54.986H62.288V57.898H61.224L61.238 54.986H56.198L62.288 46.81ZM61.224 52.368L59.838 53.978L61.224 53.95V52.368Z" fill="white"/>
<path d="M75.6286 47.048L73.8786 49.358H70.1686V51.36C72.0539 51.3693 73.0899 51.3787 73.2766 51.388C73.4633 51.3973 73.6826 51.458 73.9346 51.57C74.1959 51.682 74.4666 51.8687 74.7466 52.13C75.0266 52.382 75.2599 52.7507 75.4466 53.236C75.5213 53.432 75.5399 53.6467 75.5026 53.88C75.4653 54.1133 75.3859 54.356 75.2646 54.608C75.1433 54.86 74.9893 55.1213 74.8026 55.392C74.6159 55.6627 74.4106 55.9333 74.1866 56.204C74.1866 56.2133 74.1026 56.2927 73.9346 56.442C73.7759 56.6007 73.5753 56.7967 73.3326 57.03C73.0899 57.2633 72.8239 57.5107 72.5346 57.772C72.2453 58.0427 71.9746 58.29 71.7226 58.514C71.4799 58.7473 71.1953 59.018 70.8686 59.326C70.3739 58.85 70.1966 58.5467 70.3366 58.416C70.4766 58.2947 70.6586 58.1267 70.8826 57.912C71.1159 57.7067 71.3726 57.4687 71.6526 57.198C71.9419 56.9273 72.2266 56.6473 72.5066 56.358C72.7959 56.0687 73.0713 55.7793 73.3326 55.49C73.5939 55.2007 73.8179 54.93 74.0046 54.678C74.2753 54.3047 74.3919 53.9827 74.3546 53.712C74.3266 53.4413 74.2239 53.2173 74.0466 53.04C73.8786 52.8533 73.6779 52.718 73.4446 52.634C73.2206 52.5407 73.0526 52.494 72.9406 52.494H70.1686V54.972H69.1606V47.048H75.6286Z" fill="white"/>
</svg>
