<svg width="80" height="80" viewBox="0 0 80 80" fill="none" xmlns="http://www.w3.org/2000/svg">
<circle cx="39.9999" cy="40" r="40" fill="#27C2B1"/>
<path d="M30.8966 39.1963L45.3172 24.8199C45.6508 24.4872 46.096 24.3038 46.5707 24.3038C47.0455 24.3038 47.4907 24.4872 47.8243 24.8199L48.8862 25.8784C49.5773 26.5681 49.5773 27.6891 48.8862 28.3778L36.7769 40.4502L48.8997 52.536C49.2332 52.8688 49.4174 53.3124 49.4174 53.7855C49.4174 54.259 49.2332 54.7026 48.8997 55.0357L47.8377 56.0939C47.5039 56.4267 47.0589 56.61 46.5842 56.61C46.1094 56.61 45.6642 56.4267 45.3307 56.0939L30.8966 41.7044C30.5623 41.3705 30.3786 40.9248 30.3797 40.451C30.3786 39.9754 30.5623 39.5299 30.8966 39.1963Z" fill="white"/>
</svg>
