<svg width="80" height="80" viewBox="0 0 80 80" fill="none" xmlns="http://www.w3.org/2000/svg">
<circle r="40" transform="matrix(-1 0 0 1 40 40)" fill="#27C2B1"/>
<path d="M49.1031 39.1963L34.6824 24.8199C34.3489 24.4872 33.9036 24.3038 33.4289 24.3038C32.9541 24.3038 32.5089 24.4872 32.1754 24.8199L31.1134 25.8784C30.4224 26.5681 30.4224 27.6891 31.1134 28.3778L43.2228 40.4502L31.1 52.536C30.7664 52.8688 30.5823 53.3124 30.5823 53.7855C30.5823 54.259 30.7664 54.7026 31.1 55.0357L32.1619 56.0939C32.4957 56.4267 32.9407 56.61 33.4155 56.61C33.8902 56.61 34.3354 56.4267 34.669 56.0939L49.1031 41.7044C49.4374 41.3705 49.621 40.9248 49.62 40.451C49.621 39.9754 49.4374 39.5299 49.1031 39.1963Z" fill="white"/>
</svg>
